<svg xmlns="http://www.w3.org/2000/svg" width="328.676" height="99.024" viewBox="0 0 86.962 26.2"><path d="M8.217 12.633q-.621 0-.875-.494-.254-.48-.254-1.128 0-.58.155-1.143.17-.565.395-.861-.381.451-.945 1.03-.565.578-1.242 1.115-.678.536-1.397.889-.72.352-1.425.352-.932 0-1.397-.592-.452-.593-.452-1.623 0-.804.268-1.722.282-.93.819-1.89.254-.466.564-.918.325-.465.691-.875-.437-.211-.846-.465-.41-.268-.663-.635-.254-.367-.254-.875 0-.268.112-.48.127-.226.269-.226.127 0 .127.156 0 .098-.057.211-.07.184-.07.339 0 .38.268.72.268.324.649.564.38.24.705.381.903-.988 1.976-1.82 1.086-.847 2.328-1.355Q8.908.78 10.276.78q1.144 0 1.793.508.649.494.649 1.284 0 .706-.41 1.214-.394.494-1.043.832-.65.325-1.412.522-.747.184-1.481.268-.734.071-1.284.071-.805 0-1.567-.099-.748-.099-1.495-.31-.367.522-.805 1.213-.423.678-.818 1.44-.381.748-.635 1.495-.24.734-.24 1.37 0 .69.324 1.043.325.34.875.34.664 0 1.397-.396.748-.41 1.496-1.058.748-.65 1.425-1.411.678-.762 1.214-1.51.536-.748.847-1.327.24-.451.465-.635.226-.197.381-.197t.24.127q.085.113.085.31 0 .395-.353.79-.48.55-.931 1.34-.452.777-.734 1.638-.282.846-.282 1.594 0 .522.155.748.17.226.437.226.41 0 .819-.282.423-.268.804-.734.381-.466.706-1.03.324-.579.564-1.157.07 0 .113.014.056.014.056.113-.24.607-.578 1.227-.325.621-.748 1.143-.423.508-.945.819-.523.31-1.143.31ZM6.96 5.14q.564 0 1.256-.056.69-.07 1.368-.24.692-.17 1.27-.48.579-.31.932-.79.352-.48.352-1.171 0-.621-.522-.946-.508-.324-1.298-.324-1.312 0-2.399.522-1.072.508-1.975 1.34-.89.833-1.694 1.793.621.183 1.27.268.664.084 1.44.084zm5.08 4.12-.085.198q.635-.86 1.34-1.467.72-.621 1.355-.946.635-.338 1.002-.338.48 0 .593.254.042.098.042.211 0 .212-.141.395-.141.17-.395.17h-.057q-.042 0-.07-.014-.028-.198-.141-.34-.113-.14-.438-.14-.367 0-.72.31-.338.297-.578.819-.226.508-.254 1.143-.014.437.056.889.085.437.297.734.211.282.592.282.34 0 .621-.254.283-.254.522-.635.24-.395.424-.805l.324-.72q.17 0 .17.128-.268.649-.579 1.27-.296.62-.72 1.03-.423.395-1.03.395-.691 0-1.044-.437-.353-.452-.41-1.172-.056-.72.156-1.552-.48.55-.776.974-.282.409-.508.832-.212.424-.466 1.002-.07.17-.183.184-.099.014-.325.014h-.268q-.042 0-.099.042l-.112.057.352-.706q.17-.367.41-.86.24-.495.564-1.2.028-.043.17-.395.155-.367.423-.932.282-.592.55-.875.268-.282.607-.282.127 0 .197.028.07.029.283.029-.508.55-.861 1.213-.339.663-.79 1.468zm7.351 2.513q-.324 0-.578-.184-.24-.183-.24-.748 0-.24.028-.451.043-.212.099-.452-.127.212-.353.522-.226.31-.508.607-.268.296-.564.494-.282.197-.536.197-.367 0-.593-.324-.226-.339-.226-.875 0-.579.268-1.242t.734-1.27q.466-.607 1.072-.988.607-.38 1.27-.38.325 0 .621.112.297.1.522.339.1.099.1.226 0 .084-.071.14-.07.057-.184.03-.155-.495-.663-.495-.24 0-.55.155-.381.198-.819.635-.423.424-.804.974-.367.536-.607 1.087-.24.55-.24 1.002 0 .465.353.465.31 0 .635-.296.339-.296.635-.734.31-.451.564-.889.254-.437.396-.705.211-.381.395-.635.183-.254.522-.254.155 0 .31.042t.325.014q-.424.423-.748 1.002-.31.578-.48 1.143-.17.55-.17.931 0 .424.283.424.226 0 .48-.254.268-.254.508-.635.254-.396.465-.79.212-.41.34-.706.07 0 .112.014.056.014.056.113-.014.056-.056.127-.028.056-.099.211-.113.226-.31.607-.198.381-.466.776-.268.381-.578.65-.31.268-.65.268zm2.343-.043q-.536 0-.79-.353-.254-.366-.254-.889 0-.55.254-1.185.254-.649.677-1.213.423-.579.945-.946.523-.367 1.045-.367.409 0 .691.268t.268.635q.424-.96.692-1.919.282-.973.282-1.961 0-.762-.226-1.157-.226-.41-.55-.565-.325-.155-.621-.155-.607 0-1.228.536-.62.536-1.058 1.651-.042.099-.07.184-.015.07-.043.24-.536 0-.536-.31 0-.184.14-.438.142-.268.24-.424.523-.79 1.285-1.241.762-.452 1.496-.452.508 0 .945.24.438.226.706.705.268.48.268 1.242 0 .819-.254 1.82-.24.988-.663 2.004-.41 1.002-.96 1.863-.536.86-1.129 1.425-.324.31-.72.536-.38.226-.832.226zm.197-.31q.396 0 .805-.424.409-.437.762-1.03.155-.254.338-.606.184-.367.353-.72.17-.367.226-.607-.042-.466-.198-.635-.14-.17-.352-.17-.381 0-.805.368-.409.352-.776.917-.353.564-.578 1.171-.226.607-.226 1.115 0 .254.099.437.098.184.352.184zm6.703-1.059q-.338.565-.832 1.002-.494.424-1.27.424-.522 0-.946-.339-.409-.339-.409-1.03 0-.579.254-1.228.268-.649.691-1.213.438-.579.96-.932.536-.367 1.072-.367.269 0 .523.156.254.155.254.536 0 .353-.269.776-.268.423-.762.79-.211.155-.536.297-.324.14-.649.24-.324.084-.536.084-.07.17-.141.452-.057.282-.057.578 0 .353.141.635.142.282.523.282.592 0 1.058-.423.466-.423.79-.945.057 0 .099.042t.042.183zM26.28 9.303q.197 0 .663-.141.466-.155.847-.48.366-.324.564-.705.198-.395.198-.664 0-.31-.226-.31-.17 0-.466.226-.296.226-.734.762-.268.338-.508.734-.24.395-.338.578zm2.554 1.778q0 .141.056.268.07.113.226.113.282 0 .579-.296.296-.31.606-.79.325-.494.635-1.016.494-.833.861-1.383.381-.55.706-.819.211-.183.367-.226.155-.056.31-.056h.099q.578 0 .324.536l-.508 1.059q-.127.254-.31.635-.17.366-.339.762-.17.38-.268.733-.099.339-.07.55.028.212.254.212.183 0 .437-.31.268-.325.564-.819.31-.493.621-1.044.325-.55.635-1.044.325-.494.607-.79.07-.07.31-.268.24-.212.466-.212h.1q.253 0 .352.127.099.113-.042.41l-.494 1.058q-.127.254-.31.635-.17.366-.34.762-.155.38-.253.733-.085.339-.057.55.042.212.282.212.353 0 .692-.367.353-.366.663-.903.31-.55.55-1.086.057 0 .113.042.057.028.057.085-.254.635-.593 1.227-.325.593-.748.974t-.974.381q-.465 0-.635-.282-.169-.282-.112-.748.07-.48.282-1.058.226-.593.536-1.2.31-.607.635-1.143.056-.099 0-.099-.042 0-.183.156-.142.155-.17.183-.367.41-.691.96-.31.536-.621 1.1-.296.565-.607 1.059-.31.48-.65.776-.338.296-.747.296-.451 0-.578-.367-.113-.38.028-1.016.155-.635.522-1.425t.875-1.623q.056-.099-.014-.099t-.297.226q-.155.155-.31.353-.141.198-.381.593-.24.38-.677 1.143-.325.564-.678 1.086-.338.522-.72.86-.38.326-.832.326-.339 0-.607-.198-.268-.212-.268-.607 0-.24.113-.522.099-.282.296-.48.212-.197.508-.17.198.015.353.156-.254.24-.395.565-.141.324-.141.564zm12.982-.832q-.31.578-.734 1.03-.409.451-.945.451-.353 0-.579-.254-.226-.268-.226-.748 0-.38.142-.818-.24.423-.55.847-.311.423-.664.705-.353.268-.706.268-.155 0-.38-.07-.212-.071-.382-.254-.155-.198-.155-.579 0-.367.24-.847l.423-.846q-.155 0-.155-.127.014-.043.127-.268l.268-.537.297-.592q.155-.297.24-.452.169-.31.536-.31h.875q-.24.183-.438.409-.183.212-.465.79l-.1.198-.253.508q-.141.296-.297.607-.14.31-.24.522-.183.395-.24.635-.056.225-.056.423 0 .466.31.466.34 0 .82-.55.394-.466.775-1.115.381-.65.72-1.341.353-.691.62-1.242.156-.31.551-.31h.776q-.31.254-.635.762-.31.508-.691 1.298-.099.212-.254.536-.155.325-.282.692-.113.367-.113.733 0 .494.352.494.325 0 .65-.324.324-.339.635-.903.183 0 .183.113zm.41 1.27q.24 0 .592-.269.367-.282.762-.705.395-.438.734-.917-.17.042-.353.042-.508 0-.748-.268-.226-.268-.226-.663 0-.424.24-.875.24-.466.663-.776.438-.31.974-.31.706 0 .847.606.042-.113.099-.212.084-.17.225-.225.141-.071.339-.071h.762q-.127.099-.48.466-.338.352-.79 1.27-.155.31-.339.733-.183.424-.31.861-.127.438-.127.776 0 .466.324.466.269 0 .537-.24.282-.254.536-.635.268-.38.494-.79.226-.423.367-.776.169 0 .169.127-.155.367-.395.832-.226.466-.536.903-.31.424-.692.706-.367.268-.818.268-.395 0-.565-.226-.155-.225-.155-.592 0-.353.113-.762.113-.41.268-.805v.014q-.423.579-.875 1.115-.451.536-.917.89-.466.352-.889.352-.41 0-.635-.24-.226-.24-.226-.607 0-.282.141-.536.141-.254.353-.423.212-.17.438-.17.098 0 .183.029.099.028.183.098-.268.226-.409.55-.14.325-.14.565 0 .17.056.297.07.127.225.127zm1.876-2.06q.353 0 .62-.283.27-.296.424-.72.17-.437.17-.832 0-.607-.367-.607-.226 0-.452.198-.226.183-.423.494-.198.296-.325.62-.113.325-.113.593 0 .226.1.381.112.155.366.155z" aria-label="Академия" style="font-size:14.1111px;font-family:&quot;Great Vibes&quot;;-inkscape-font-specification:&quot;Great Vibes, Normal&quot;;fill:#f7567c;stroke:#fff;stroke-width:1.55991;stroke-opacity:0"/><path d="M.772 25.462V15.195h4.072q1.688 0 2.535.744.855.745.855 1.895 0 .91-.53 1.468-.524.558-1.317.737v.103q.579.028 1.089.331.517.303.834.855.323.544.323 1.302 0 .813-.4 1.454-.399.64-1.184 1.012-.786.366-1.943.366zm2.101-1.73h1.82q.93 0 1.35-.358.427-.358.427-.944 0-.64-.469-1.061-.461-.42-1.254-.42H2.873Zm0-4.224h1.66q.676 0 1.124-.358.448-.358.448-.978 0-.558-.4-.91-.393-.351-1.13-.351H2.873Zm10.666 6.105q-1.178 0-2.032-.482-.855-.482-1.316-1.371-.455-.89-.455-2.109 0-1.192.455-2.087.461-.896 1.288-1.4.834-.502 1.957-.502 1.006 0 1.826.427.82.427 1.302 1.295.49.869.49 2.185v.578h-5.272q.035.944.524 1.427.49.482 1.268.482.544 0 .93-.227.393-.235.558-.682l1.874.35q-.282.959-1.171 1.537-.882.58-2.226.58zm-1.743-4.76h3.266q-.076-.752-.482-1.193-.407-.44-1.123-.44-.745 0-1.172.46-.427.455-.489 1.172zm10.494-3.095v1.578h-1.44v3.873q0 .716.703.716.117 0 .323-.027.214-.035.331-.062l.296 1.55q-.344.103-.689.145-.337.04-.647.04-1.158 0-1.771-.557-.613-.565-.613-1.626v-4.052h-1.061v-1.578h1.06v-1.832h2.068v1.832zm3.445 3.246v4.458h-2.067V15.195h2.026v4.038q.337-.751.916-1.158.579-.413 1.433-.413 1.199 0 1.922.772.73.771.73 2.129v4.899h-2.073V20.92q0-.717-.372-1.123-.365-.407-1.02-.407-.661 0-1.082.428-.413.42-.413 1.185zm10.197 4.61q-1.178 0-2.032-.483-.855-.482-1.316-1.371-.455-.89-.455-2.109 0-1.192.455-2.087.461-.896 1.288-1.4.834-.502 1.957-.502 1.006 0 1.826.427.82.427 1.302 1.295.49.869.49 2.185v.578h-5.272q.035.944.524 1.427.49.482 1.268.482.544 0 .93-.227.393-.235.558-.682l1.874.35q-.282.959-1.171 1.537-.882.58-2.226.58zm-1.743-4.762h3.266q-.076-.751-.482-1.192-.407-.44-1.123-.44-.744 0-1.172.46-.427.455-.489 1.172zm8.737-5.657v10.267h-2.067V15.195Zm8.909 10.418q-1.854 0-2.963-.847-1.102-.855-1.144-2.488h2.047q.055.779.62 1.172.572.386 1.42.386.84 0 1.35-.359.516-.365.516-.95 0-.531-.468-.814-.462-.282-1.302-.489l-1.13-.282q-1.303-.317-2.04-.993-.737-.682-.737-1.798 0-.93.496-1.626.503-.696 1.371-1.082.875-.386 1.991-.386 1.137 0 1.985.393.847.386 1.323 1.082.475.689.489 1.592h-2.033q-.055-.62-.53-.958-.469-.338-1.254-.338-.806 0-1.247.338-.434.33-.434.847 0 .572.489.855.496.282 1.15.44l.93.228q.862.2 1.558.579.696.372 1.102.971.407.593.407 1.454 0 1.399-1.048 2.24-1.04.833-2.914.833zm9.984-.014q-1.358 0-2.446-.62-1.082-.62-1.716-1.798-.627-1.178-.627-2.846 0-1.674.627-2.852.634-1.185 1.716-1.805 1.088-.62 2.446-.62 1.364 0 2.446.62t1.709 1.805q.633 1.178.633 2.852 0 1.675-.633 2.853-.627 1.171-1.71 1.791-1.081.62-2.445.62zm0-1.867q1.199 0 1.922-.868.73-.875.73-2.529 0-1.66-.73-2.535-.723-.875-1.922-.875-1.192 0-1.923.882-.73.875-.73 2.528 0 1.647.73 2.522.73.875 1.923.875zm6.229 1.73V24.2l4.161-5.878q.255-.351.545-.702.289-.359.592-.71-.49.02-.985.027h-4.334v-1.743h7.806v1.268l-4.085 5.774q-.27.379-.58.758-.31.379-.633.758.524-.028 1.04-.028.517-.007 1.04-.007h3.24v1.744zm13.539.137q-1.358 0-2.446-.62-1.082-.62-1.716-1.798-.627-1.178-.627-2.846 0-1.674.627-2.852.634-1.185 1.716-1.805 1.088-.62 2.446-.62 1.364 0 2.446.62t1.709 1.805q.633 1.178.633 2.852 0 1.675-.633 2.853-.627 1.171-1.71 1.791-1.081.62-2.445.62zm0-1.867q1.199 0 1.922-.868.73-.875.73-2.529 0-1.66-.73-2.535-.723-.875-1.922-.875-1.192 0-1.923.882-.73.875-.73 2.528 0 1.647.73 2.522.73.875 1.923.875z" aria-label="Bethel SOZO" style="font-weight:700;font-size:14.1111px;font-family:Inter;-inkscape-font-specification:&quot;Inter, Bold&quot;;fill:#100f0d;stroke:#fff;stroke-width:1.17364;stroke-opacity:0"/></svg>