<svg xmlns="http://www.w3.org/2000/svg" width="96.956" height="167.229" viewBox="0 0 25.653 44.246"><g style="display:inline;fill:#fff;fill-opacity:1;stroke:#fff;stroke-opacity:0"><g style="display:inline;fill:#100f0d;fill-opacity:1;stroke:#fff;stroke-opacity:0"><g style="fill:#100f0d;fill-opacity:1;stroke:#fff;stroke-opacity:0"><path stroke="none" d="M0 0c.08.236 0 .478-.158.637C-.319.715-.557.478-.715.478c-.478 0-.717-.875-1.192-.875-.239 0-.239.397-.32.633-.079.082-.237.242-.237.161a3.262 3.262 0 0 1 0-1.748c0-.08-.159-.318-.159-.399-.238-.475 0-1.032-.238-1.509-.398-.874-.319-1.827-.954-2.623-.795-1.033-1.114-2.464-2.386-3.099 0 0-.079.079-.079.158h-.238c-.079-.158-.158-.318-.24-.476l-.008.075v.2l-.079.036-.051.025.061.061.074.035v.057l-.074.128s0 .098.074.191c.012.012.019.02.028.024.016-.009.03-.016.043-.026.016-.035.022-.091.022-.091s.071 0 .008.126a.998.998 0 0 1 .041.178c.017.014.036.029.051.043.048.051.063.216.063.216l-.047.046-.061.061a1.045 1.045 0 0 1-.011.096h.115l-.074.047-.051.049-.012.114.116.058h-.124c-.006.055-.012.11-.016.163l.038.087.047.049v.098h-.073v.08l.053.052-.122.079a1.451 1.451 0 0 1-.083.186v.001h.121l-.343.347.077.078h-.134l-.098.189-.063.063v.162l-.183.204h-.106l.058.058h-.172l.109.107h-.147l-.051.052h-.128l.091.092h-.091l-.143.017v.085l-.248.086h-.173v.185l-.056-.056-.077-.079a.65.65 0 0 1-.121.025v.086l-.097-.087a.352.352 0 0 1-.197-.105 2.523 2.523 0 0 0-.216-.28h-.075l.04-.042c-.012-.01-.022-.025-.034-.036h-.072l.037-.037a22.698 22.698 0 0 0-.236-.241l.08-.08c-.446-.196-.521-.638-.572-1.098l-.053-.054-.065-.149-.073-.076v-.048h.061s.069 0 .097.03c-.003-.024-.005-.046-.01-.068-.034-.034-.024-.155-.024-.159 0-.002 0-.002-.002-.003l-.061-.242a.208.208 0 0 0-.015-.039c.007-.002.011-.005.015-.005v-.118s.035.033.126.004c.022-.072.008-.159.004-.248 0-.002-.002-.002-.002-.002v-.004a.378.378 0 0 1 .029-.19.275.275 0 0 1 .032-.217v-.117l.059.058.146.065v-.175h.1v-.076h.13v-.101l.061-.063v-.001l-.073-.073c-.118-.07-.307-.083-.307-.249-.32.399-.795.557-1.112.956-.875.713-1.512 1.668-1.99 2.621-.317.637-.396 1.353-.634 1.988-.159.398-.478.874-.24 1.351-.396.16-.238.958-.238 1.198-.2.837.082.789 0 1.423 0 .24-.158.281-.317-.078-.095-.663-.239-.635-.399-.635-.555 0-.793.874-1.429.635.626-.705-.08.078-.16.157-.078 0-.158 0-.158-.079 0-.078 0-.078.08-.157 0-.08.156-.317.077-.317-.079.159-.466.168-.545.168 0-.082-.013-.086.071-.248.12-.07.355-.124.355-.204 1.003-.606-.436.045-.595-.116.715-.554 1.67-.714 1.986-1.587 0-.081-.237-.16-.158-.319.08-.159.158-.318.158-.398.241-.954.399-1.908.558-2.861.079-.159.238-.238.318-.396.079-.242.079-.478.079-.716.238-.717.795-1.352 1.112-2.067.637-1.351 1.749-2.463 1.749-4.054 0-.239.159-.476.159-.714.319-1.112-.08-2.226-.08-3.34 0 0 0-.159.08-.237.079-.398-.08-.795-.238-1.194 0-.08.158-.159.158-.159-.238-.474-.316-1.031-.396-1.509-.399-1.67-.399-3.26-.478-4.93 0-.793 0-1.587-.397-2.384-.079-.236.08-.556 0-.794-.317-1.033-.238-2.146-.317-3.257 0-.159-.398-.399-.557-.638-.08-.158.079-.318.079-.397.08-.397.08-.794-.079-1.192-.317-.556-1.033-.635-1.192-1.272.635-.078 1.351-.238 1.987-.158.318.08.476.477.716.555.318.161.714.081.952.24.081.158.081.398.161.556 0 .238-.238.477 0 .636-.238.238-.08.635-.238 1.032-.161.4.158.954.317 1.511.079.238-.079.559 0 .797.158.157.158.397.238.554 0 .477.079.876.237 1.352.08.318.397.556.558.873.079.318.079.557.159.874.317.715.636 1.433.874 2.148.079.396.159.715.238 1.113.08.237.317.317.476.079.398-1.033.478-2.228 1.035-3.18.476-.794.397-1.668.634-2.543.24-1.27.159-2.464.399-3.658.08-.238.08-.634.318-.873.158-.238-.08-.555-.08-.873.08-.162.08-.398.238-.477.317 0 .637 0 .796-.161.317-.397.715-.555 1.112-.635.557-.079 1.191-.318 1.669.16-.237.636-.954.951-1.271 1.59-.081.158-.16.396-.081.635.081.237-.317.317-.317.477-.238 1.112 0 2.307-.158 3.418-.16 1.033-.477 1.906-.558 2.94 0 1.909-.239 3.814-.476 5.801-.079.637-.238 1.193-.478 1.83 0 .079.24 0 .24.16 0 1.031-.557 2.065-.399 3.099 0 .158.08.397.159.556.399 1.113-.043 2.364.558 3.498.715 1.351 1.429 2.542 1.907 3.973.159.396.238.875.317 1.271.477 1.512.557 3.021 1.113 4.451.24.636.954.794 1.511 1.194v.237C.238 0 0-.159 0 0" style="fill:#100f0d;fill-opacity:1;fill-rule:nonzero;stroke:#fff;stroke-opacity:0" transform="matrix(1.17048 0 0 -1.17048 20.883 1.348)"/></g><g style="fill:#100f0d;fill-opacity:1;stroke:#fff;stroke-opacity:0"><path stroke="none" d="M0 0h-.816v-2.108h-.327V0h-.813v.291H0Z" style="fill:#100f0d;fill-opacity:1;fill-rule:nonzero;stroke:#fff;stroke-opacity:0" transform="matrix(1.17048 0 0 -1.17048 21.757 40.383)"/></g><g style="fill:#100f0d;fill-opacity:1;stroke:#fff;stroke-opacity:0"><path stroke="none" d="m0 0-.312-.001-.005 2.019-.675-2.02-.327-.003-.678 2.022.007-2.022-.317-.001-.006 2.399.474.002.69-2.029.68 2.032.463.001z" style="fill:#100f0d;fill-opacity:1;fill-rule:nonzero;stroke:#fff;stroke-opacity:0" transform="matrix(1.17048 0 0 -1.17048 25.066 42.844)"/></g></g></g></svg>